<?xml version="1.0" encoding="UTF-8" standalone="no"?>
<!-- Created with Inkscape (http://www.inkscape.org/) -->

<svg
   xmlns:dc="http://purl.org/dc/elements/1.1/"
   xmlns:cc="http://creativecommons.org/ns#"
   xmlns:rdf="http://www.w3.org/1999/02/22-rdf-syntax-ns#"
   xmlns:svg="http://www.w3.org/2000/svg"
   xmlns="http://www.w3.org/2000/svg"
   xmlns:sodipodi="http://sodipodi.sourceforge.net/DTD/sodipodi-0.dtd"
   xmlns:inkscape="http://www.inkscape.org/namespaces/inkscape"
   width="744.09448819"
   height="1052.3622047"
   id="svg4029"
   version="1.1"
   inkscape:version="0.48.4 r9939"
   sodipodi:docname="New document 3">
  <defs
     id="defs4031" />
  <sodipodi:namedview
     id="base"
     pagecolor="#ffffff"
     bordercolor="#666666"
     borderopacity="1.0"
     inkscape:pageopacity="0.0"
     inkscape:pageshadow="2"
     inkscape:zoom="4.5044283"
     inkscape:cx="328.59703"
     inkscape:cy="389.68059"
     inkscape:document-units="px"
     inkscape:current-layer="layer1"
     showgrid="false"
     inkscape:window-width="3200"
     inkscape:window-height="1627"
     inkscape:window-x="0"
     inkscape:window-y="55"
     inkscape:window-maximized="1" />
  <metadata
     id="metadata4034">
    <rdf:RDF>
      <cc:Work
         rdf:about="">
        <dc:format>image/svg+xml</dc:format>
        <dc:type
           rdf:resource="http://purl.org/dc/dcmitype/StillImage" />
        <dc:title></dc:title>
      </cc:Work>
    </rdf:RDF>
  </metadata>
  <g
     inkscape:label="Layer 1"
     inkscape:groupmode="layer"
     id="layer1">
    <path
       d="m 311.46477,634.1484 c -0.3025,0 -0.5975,-0.11 -0.8275,-0.3125 -0.26875,-0.23875 -0.4225,-0.57875 -0.4225,-0.9375 l 0,-5.17875 -6.8325,1.0425 c -0.36,0.0562 -0.72625,-0.05 -1.0025,-0.28625 -0.27625,-0.23875 -0.435,-0.58375 -0.435,-0.94875 l 0,-9.625 c 0,-0.61875 0.45125,-1.14375 1.0625,-1.23625 l 16.5375,-2.50375 c 0.35625,-0.0588 0.725,0.05 1.0025,0.28875 0.275,0.23625 0.43375,0.58375 0.43375,0.9475 l 0,4.78875 6.86625,-1.04375 c 0.3575,-0.0575 0.7275,0.05 1.0025,0.28625 0.2775,0.23875 0.43625,0.585 0.43625,0.94875 l 0,10.44625 c 0,0.63 -0.47,1.1625 -1.095,1.24125 l -16.57125,2.0725 c -0.0513,0.006 -0.10375,0.01 -0.155,0.01"
       style="fill:#da4e55;fill-opacity:1;fill-rule:nonzero;stroke:none;display:inline"
       id="path822"
       inkscape:connector-curvature="0"
       inkscape:export-filename="/home/carrot/path830.png"
       inkscape:export-xdpi="288"
       inkscape:export-ydpi="288"
       sodipodi:nodetypes="ccscccsscccscccssccc" />
    <path
       d="m 303.02002,646.6479 c -0.69125,0 -1.25,-0.55875 -1.25,-1.25 l 0,-32.14375 c 0,-0.69125 0.55875,-1.25 1.25,-1.25 0.69125,0 1.25,0.55875 1.25,1.25 l 0,32.14375 c 0,0.69125 -0.55875,1.25 -1.25,1.25"
       style="fill:#da4e55;fill-opacity:1;fill-rule:nonzero;stroke:none;display:inline"
       id="path826"
       inkscape:connector-curvature="0"
       inkscape:export-filename="/home/carrot/path830.png"
       inkscape:export-xdpi="288"
       inkscape:export-ydpi="288" />
    <path
       d="m 303.05415,609.1479 c -0.6875,0 -1.26875,0.59 -1.26875,1.28625 0,0.69 0.56875,1.25 1.26875,1.25 0.6925,0 1.23375,-0.54875 1.23375,-1.25 0,-0.70875 -0.55375,-1.28625 -1.23375,-1.28625 m 0,5.03625 c -2.0775,0 -3.76875,-1.68125 -3.76875,-3.75 0,-2.0875 1.69125,-3.78625 3.76875,-3.78625 2.05875,0 3.73375,1.69875 3.73375,3.78625 0,2.06875 -1.675,3.75 -3.73375,3.75"
       style="fill:#da4e55;fill-opacity:1;fill-rule:nonzero;stroke:none;display:inline"
       id="path830"
       inkscape:connector-curvature="0"
       inkscape:export-xdpi="288"
       inkscape:export-ydpi="288" />
  </g>
</svg>
